# This file uses centimeters as units for non-parametric coordinates.

v 0.500000 0.000000 0.000000
v 0.000000 0.500000 0.000000
v -0.500000 0.000000 0.000000
v 0.000000 -0.500000 0.000000
v 0.000000 0.000000 1.000000
vt 0.500000 0.000000
vt 0.750000 0.250000
vt 0.250000 0.250000
vt 0.500000 0.500000
vt 0.250000 0.500000
vt 0.375000 0.500000
vt 0.500000 1.000000
vt 0.500000 0.500000
vt 0.625000 0.500000
vt 0.750000 0.500000
vn 0.000000 0.000000 -1.000000
vn 0.000000 0.000000 -1.000000
vn 0.000000 0.000000 -1.000000
vn 0.000000 0.000000 -1.000000
vn 0.000000 0.000000 -1.000000
vn 0.000000 0.000000 -1.000000
vn 0.666667 0.666667 0.333333
vn 0.666667 0.666667 0.333333
vn 0.666667 0.666667 0.333333
vn -0.666667 0.666667 0.333333
vn -0.666667 0.666667 0.333333
vn -0.666667 0.666667 0.333333
vn -0.666667 -0.666667 0.333333
vn -0.666667 -0.666667 0.333333
vn -0.666667 -0.666667 0.333333
vn 0.666667 -0.666667 0.333333
vn 0.666667 -0.666667 0.333333
vn 0.666667 -0.666667 0.333333
f 1/1/1 4/2/2 2/3/3
f 2/3/4 4/2/5 3/4/6
f 1/5/7 2/6/8 5/7/9
f 2/6/10 3/8/11 5/7/12
f 3/8/13 4/9/14 5/7/15
f 4/9/16 1/10/17 5/7/18
